<svg width="256" height="256" viewBox="0 0 256 256" fill="none" xmlns="http://www.w3.org/2000/svg">
<g clip-path="url(#clip0_14_85)">
<rect width="256" height="256" rx="20" fill="#7A50D0"/>
<path d="M132.951 157.25C132.951 161.583 134.285 164.667 136.951 166.5C139.785 168.333 143.701 169.25 148.701 169.25C151.201 169.25 153.785 169.083 156.451 168.75C159.118 168.25 161.451 167.667 163.451 167C164.951 168.833 166.201 170.917 167.201 173.25C168.368 175.417 168.951 178.083 168.951 181.25C168.951 187.583 166.535 192.75 161.701 196.75C157.035 200.75 148.701 202.75 136.701 202.75C122.035 202.75 110.701 199.417 102.701 192.75C94.8678 186.083 90.9512 175.25 90.9512 160.25V53.25C92.7845 52.75 95.3678 52.25 98.7012 51.75C102.201 51.0833 105.868 50.75 109.701 50.75C117.035 50.75 122.701 52.0833 126.701 54.75C130.868 57.25 132.951 62.6667 132.951 71V87H165.701C166.701 88.8333 167.618 91.1667 168.451 94C169.451 96.6667 169.951 99.6667 169.951 103C169.951 108.833 168.618 113.083 165.951 115.75C163.451 118.25 160.035 119.5 155.701 119.5H132.951V157.25Z" fill="#A986EF"/>
</g>
<defs>
<clipPath id="clip0_14_85">
<rect width="256" height="256" rx="20" fill="white"/>
</clipPath>
</defs>
</svg>
